<svg width="160" height="160" viewBox="0 0 160 160" fill="none" xmlns="http://www.w3.org/2000/svg">
<rect width="160" height="160" fill="#EAE0D5"/>
<path d="M36.925 85.933V77.149H59.068C59.3527 80.6463 59.0477 83.9403 58.153 87.031C57.2583 90.1217 55.8553 92.826 53.944 95.144C52.0327 97.462 49.6333 99.292 46.746 100.634C43.8587 101.935 40.5443 102.586 36.803 102.586C33.3463 102.586 30.154 102.037 27.226 100.939C24.3387 99.841 21.8173 98.2957 19.662 96.303C17.5473 94.2697 15.9003 91.85 14.721 89.044C13.5417 86.1973 12.952 83.066 12.952 79.65C12.952 76.234 13.562 73.1433 14.782 70.378C16.002 67.6127 17.71 65.254 19.906 63.302C22.102 61.3093 24.6843 59.8047 27.653 58.788C30.6217 57.7307 33.8343 57.202 37.291 57.202C40.4223 57.202 43.208 57.6697 45.648 58.605C48.1287 59.4997 50.3043 60.74 52.175 62.326C54.0457 63.8713 55.6723 65.6403 57.055 67.633L46.258 72.818C45.404 71.2727 44.2653 69.9713 42.842 68.914C41.4187 67.8567 39.5683 67.328 37.291 67.328C35.1357 67.328 33.143 67.7957 31.313 68.731C29.483 69.6663 28.019 71.049 26.921 72.879C25.8637 74.709 25.335 76.966 25.335 79.65C25.335 82.2933 25.8433 84.591 26.86 86.543C27.8767 88.4543 29.2797 89.9183 31.069 90.935C32.8583 91.9517 34.9323 92.46 37.291 92.46C38.7143 92.46 39.975 92.3177 41.073 92.033C42.171 91.7077 43.1267 91.2603 43.94 90.691C44.7533 90.081 45.4447 89.3693 46.014 88.556C46.624 87.7427 47.112 86.8683 47.478 85.933H36.925ZM72.0548 94.107L72.4208 85.384H94.3198L94.6248 94.107H72.0548ZM83.2178 75.807L77.6058 88.617L78.3378 91.24L73.3968 101H59.9768L83.2178 55.433L106.52 101H93.0998L88.2198 91.667L88.8908 88.617L83.2178 75.807ZM120.035 79.65C120.035 82.0493 120.564 84.103 121.621 85.811C122.719 87.4783 124.163 88.7593 125.952 89.654C127.741 90.508 129.714 90.935 131.869 90.935C133.902 90.935 135.671 90.6707 137.176 90.142C138.681 89.6133 140.023 88.9423 141.202 88.129C142.381 87.275 143.418 86.3803 144.313 85.445V97.889C142.646 99.109 140.795 100.126 138.762 100.939C136.769 101.712 134.207 102.098 131.076 102.098C127.538 102.098 124.285 101.569 121.316 100.512C118.347 99.4547 115.806 97.9297 113.691 95.937C111.576 93.9443 109.929 91.5857 108.75 88.861C107.611 86.0957 107.042 83.0253 107.042 79.65C107.042 76.2747 107.611 73.2247 108.75 70.5C109.929 67.7347 111.576 65.3557 113.691 63.363C115.806 61.3703 118.347 59.8453 121.316 58.788C124.285 57.7307 127.538 57.202 131.076 57.202C134.207 57.202 136.769 57.5883 138.762 58.361C140.795 59.1337 142.646 60.1503 144.313 61.411V73.855C143.418 72.9197 142.381 72.0453 141.202 71.232C140.023 70.378 138.681 69.6867 137.176 69.158C135.671 68.6293 133.902 68.365 131.869 68.365C129.714 68.365 127.741 68.8123 125.952 69.707C124.163 70.561 122.719 71.842 121.621 73.55C120.564 75.2173 120.035 77.2507 120.035 79.65Z" fill="#22333B"/>
</svg>
