<svg width="54" height="54" viewBox="0 0 54 54" fill="none" xmlns="http://www.w3.org/2000/svg">
<path d="M27 36C28.8 36 30.4031 35.4656 31.8094 34.3969C33.2156 33.3281 34.2375 31.95 34.875 30.2625H19.125C19.7625 31.95 20.7844 33.3281 22.1906 34.3969C23.5969 35.4656 25.2 36 27 36ZM21.375 27C22.3125 27 23.1094 26.6719 23.7656 26.0156C24.4219 25.3594 24.75 24.5625 24.75 23.625C24.75 22.6875 24.4219 21.8906 23.7656 21.2344C23.1094 20.5781 22.3125 20.25 21.375 20.25C20.4375 20.25 19.6406 20.5781 18.9844 21.2344C18.3281 21.8906 18 22.6875 18 23.625C18 24.5625 18.3281 25.3594 18.9844 26.0156C19.6406 26.6719 20.4375 27 21.375 27ZM32.625 27C33.5625 27 34.3594 26.6719 35.0156 26.0156C35.6719 25.3594 36 24.5625 36 23.625C36 22.6875 35.6719 21.8906 35.0156 21.2344C34.3594 20.5781 33.5625 20.25 32.625 20.25C31.6875 20.25 30.8906 20.5781 30.2344 21.2344C29.5781 21.8906 29.25 22.6875 29.25 23.625C29.25 24.5625 29.5781 25.3594 30.2344 26.0156C30.8906 26.6719 31.6875 27 32.625 27ZM17.1563 14.4L23.4563 6.24375C23.9062 5.64375 24.4406 5.20312 25.0594 4.92188C25.6781 4.64062 26.325 4.5 27 4.5C27.675 4.5 28.3219 4.64062 28.9406 4.92188C29.5594 5.20312 30.0938 5.64375 30.5438 6.24375L36.8438 14.4L46.4062 17.6062C47.3813 17.9062 48.15 18.4594 48.7125 19.2656C49.275 20.0719 49.5563 20.9625 49.5563 21.9375C49.5563 22.3875 49.4906 22.8375 49.3594 23.2875C49.2281 23.7375 49.0125 24.1687 48.7125 24.5812L42.525 33.3562L42.75 42.5812C42.7875 43.8937 42.3563 45 41.4563 45.9C40.5563 46.8 39.5063 47.25 38.3063 47.25C38.2313 47.25 37.8188 47.1937 37.0688 47.0812L27 44.2687L16.9313 47.0812C16.7438 47.1562 16.5375 47.2031 16.3125 47.2219C16.0875 47.2406 15.8813 47.25 15.6938 47.25C14.4938 47.25 13.4438 46.8 12.5438 45.9C11.6438 45 11.2125 43.8937 11.25 42.5812L11.475 33.3L5.34375 24.5812C5.04375 24.1687 4.82812 23.7375 4.69688 23.2875C4.56563 22.8375 4.5 22.3875 4.5 21.9375C4.5 21 4.77187 20.1281 5.31563 19.3219C5.85938 18.5156 6.61875 17.9437 7.59375 17.6062L17.1563 14.4Z" fill="#22333B"/>
</svg>
