<svg xmlns="http://www.w3.org/2000/svg" width="28" height="28" viewBox="0 0 28 28" fill="none">
  <path d="M7.58341 23.3333C5.81397 23.3333 4.30216 22.7208 3.048 21.4958C1.79383 20.2708 1.16675 18.7736 1.16675 17.0042C1.16675 15.4875 1.62369 14.1361 2.53758 12.95C3.45147 11.7639 4.6473 11.0056 6.12508 10.675C6.61119 8.88611 7.58341 7.4375 9.04175 6.32916C10.5001 5.22083 12.1529 4.66666 14.0001 4.66666C16.2751 4.66666 18.2049 5.45903 19.7897 7.04375C21.3744 8.62847 22.1667 10.5583 22.1667 12.8333C23.5084 12.9889 24.6216 13.5674 25.5063 14.5687C26.3911 15.5701 26.8334 16.7417 26.8334 18.0833C26.8334 19.5417 26.323 20.7812 25.3022 21.8021C24.2813 22.8229 23.0417 23.3333 21.5834 23.3333H15.1667C14.5251 23.3333 13.9758 23.1049 13.5188 22.6479C13.0619 22.191 12.8334 21.6417 12.8334 21V14.9917L10.9667 16.8L9.33342 15.1667L14.0001 10.5L18.6667 15.1667L17.0334 16.8L15.1667 14.9917V21H21.5834C22.4001 21 23.0904 20.7181 23.6542 20.1542C24.2181 19.5903 24.5001 18.9 24.5001 18.0833C24.5001 17.2667 24.2181 16.5764 23.6542 16.0125C23.0904 15.4486 22.4001 15.1667 21.5834 15.1667H19.8334V12.8333C19.8334 11.2194 19.2647 9.84375 18.1272 8.70625C16.9897 7.56875 15.614 7 14.0001 7C12.3862 7 11.0105 7.56875 9.873 8.70625C8.7355 9.84375 8.16675 11.2194 8.16675 12.8333H7.58341C6.45564 12.8333 5.49314 13.2319 4.69591 14.0292C3.89869 14.8264 3.50008 15.7889 3.50008 16.9167C3.50008 18.0444 3.89869 19.0069 4.69591 19.8042C5.49314 20.6014 6.45564 21 7.58341 21H10.5001V23.3333H7.58341Z" fill="#EAE0D5"/>
</svg>